# xmcd
#
# Track frame offsets: 
#        183
#        24395
#        41433
#        58920
#        78925
#        98345
#        112933
#        128935
#        148883
#        163483
#        174708
#
# Disc length: 2652 seconds
#
# Revision: 5
# Processed by: cddbd v1.5.2PL0 Copyright (c) Steve Scherf et al.
# Submitted via: ExactAudioCopyFreeDBPlugin 1.0
#
DISCID=910a5a0b
DTITLE=譚詠麟 - 霧之戀
DYEAR=1984
DGENRE=Pop
TTITLE0=傲骨
TTITLE1=愛的替身
TTITLE2=亮了紅燈
TTITLE3=霧之戀
TTITLE4=午夜麗人
TTITLE5=創造命運
TTITLE6=譚詠麟、張淑玲 - 愛火
TTITLE7=幻影
TTITLE8=火一般眼波
TTITLE9=愛是這樣甜
TTITLE10=但願不改變
EXTD=
EXTT0=
EXTT1=
EXTT2=
EXTT3=
EXTT4=
EXTT5=
EXTT6=
EXTT7=
EXTT8=
EXTT9=
EXTT10=
PLAYORDER=
